<?xml version="1.0" encoding="utf-8"?>
<!-- Generator: Adobe Illustrator 19.2.1, SVG Export Plug-In . SVG Version: 6.00 Build 0)  -->
<svg version="1.1" id="Слой_1" xmlns="http://www.w3.org/2000/svg" xmlns:xlink="http://www.w3.org/1999/xlink" x="0px" y="0px"
	 viewBox="0 0 24 24" style="enable-background:new 0 0 24 24;" xml:space="preserve">
<style type="text/css">
	.st0{fill:#D3D3D3;}
</style>
<g>
	<path class="st0" d="M12,0C5.4,0,0,5.4,0,12s5.4,12,12,12s12-5.4,12-12S18.6,0,12,0z M12,21.5c-5.3,0-9.5-4.3-9.5-9.5
		S6.7,2.5,12,2.5s9.5,4.3,9.5,9.5S17.3,21.5,12,21.5z"/>
	<circle class="st0" cx="9.1" cy="8.6" r="1.5"/>
	<circle class="st0" cx="15" cy="8.6" r="1.5"/>
	<path class="st0" d="M17.2,12.7c-0.4,2.5-2.5,4.5-5.2,4.5s-4.8-2-5.2-4.5H5c0.4,3.6,3.4,6.3,7,6.3s6.7-2.8,7-6.3H17.2z"/>
</g>
</svg>
