<?xml version="1.0" encoding="utf-8"?>
<!-- Generator: Adobe Illustrator 19.2.1, SVG Export Plug-In . SVG Version: 6.00 Build 0)  -->
<svg version="1.1" id="Слой_1" xmlns="http://www.w3.org/2000/svg" xmlns:xlink="http://www.w3.org/1999/xlink" x="0px" y="0px"
	 viewBox="0 0 24 24" style="enable-background:new 0 0 24 24;" xml:space="preserve">
<style type="text/css">
	.st0{fill:#D3D3D3;}
</style>
<path class="st0" d="M24,15.3c0-0.8-0.3-1.6-0.8-2.1c0-0.2,0.1-0.4,0.1-0.6c0-1.6-1.3-3-2.8-3h-3.3c0-0.1,0-0.1,0-0.1
	c0.5-0.9,1.9-3.6,1.9-5.6v0c0-1.8-1.3-3.8-3.1-3.8l-0.1,0c-1.1,0-1.8,0.9-1.8,2.2v0.3c0,1.8-0.9,2.9-1.9,3.8c-0.3,0.3-0.7,0.6-1,1
	c-0.3,0.4-0.6,0.9-1,1.6c-0.7,1.2-1.6,2.7-2.6,3.3c-0.2-1-1.1-1.7-2.1-1.7H2.2c-1.2,0-2.2,1-2.2,2.2v9.1c0,1.2,1,2.2,2.2,2.2h3.3
	c1,0,1.8-0.6,2-1.5c1.1,0.5,3,1.1,5.8,1.1h6.3c1.5,0,2.7-1.3,2.7-2.8c0-0.1,0-0.2,0-0.3c0.6-0.6,1-1.4,1-2.2c0-0.3,0-0.5-0.1-0.8
	C23.7,16.9,24,16.1,24,15.3z M4.9,22.2c-0.6,0-1-0.5-1-1c0-0.6,0.5-1,1-1c0.6,0,1,0.5,1,1C5.9,21.7,5.4,22.2,4.9,22.2z M21.9,16.7
	L21.4,17l0.2,0.5c0.1,0.2,0.1,0.4,0.1,0.7c0,0.5-0.3,1-0.7,1.3l-0.5,0.3l0.1,0.5c0,0.1,0.1,0.3,0.1,0.4c0,0.8-0.6,1.4-1.2,1.4h-6.3
	c-3.2,0-5.1-0.9-5.7-1.3h0l0-7c1.8-0.5,3-2.6,3.9-4.1c0.3-0.6,0.6-1.1,0.9-1.3c0.3-0.3,0.6-0.6,0.9-0.9c1.1-1,2.4-2.5,2.4-4.9V2.3
	c0-0.2,0-0.8,0.3-0.8l0,0c0.9,0,1.7,1.3,1.7,2.4v0c0,1.5-1.3,4.1-1.7,4.9c-0.2,0.3-0.3,0.7-0.3,1.1c0,0.6,0.5,1.1,1.1,1.1h3.6
	c0.7,0,1.4,0.7,1.4,1.5c0,0.2,0,0.4-0.1,0.6l-0.2,0.5l0.4,0.3c0.4,0.3,0.6,0.8,0.6,1.4C22.6,15.9,22.3,16.4,21.9,16.7z"/>
</svg>
