<?xml version="1.0" encoding="utf-8"?>
<!-- Generator: Adobe Illustrator 19.2.1, SVG Export Plug-In . SVG Version: 6.00 Build 0)  -->
<svg version="1.1" id="Слой_1" xmlns="http://www.w3.org/2000/svg" xmlns:xlink="http://www.w3.org/1999/xlink" x="0px" y="0px"
	 viewBox="0 0 24 24" style="enable-background:new 0 0 24 24;" xml:space="preserve">
<style type="text/css">
	.st0{fill:#D1D1D1;}
</style>
<path class="st0" d="M4.5,6.7h15.1c0.3,0,0.6,0.2,0.6,0.5l0,0c0,0.3-0.3,0.5-0.6,0.5H4.5c-0.3,0-0.6-0.2-0.6-0.5l0,0
	C3.9,6.9,4.1,6.7,4.5,6.7z"/>
<path class="st0" d="M10.9,2.6h2.3c0.6,0,1.1,0.2,1.1,0.6v2.1c0,0.3-0.5,0.6-1.1,0.6h-2.3c-0.6,0-1.1-0.2-1.1-0.6V3.2
	C9.8,2.9,10.3,2.6,10.9,2.6z"/>
<g transform="matrix(0.19243811,0,0,0.19243811,5000.0224,-1062.1025)">
	<path class="st0" d="M-25977.5,5612.3c-0.1,0-0.2,0.1-0.2,0.2c-0.1,1-1.3,2.4-2.5,3.9c-1.2,1.5-2.4,3.1-2.3,4.8
		c0,2.7,2.2,4.9,5,4.9s5-2.2,5-4.9c0.1-1.7-1.1-3.3-2.3-4.8c-1.2-1.5-2.4-2.8-2.5-3.9
		C-25977.3,5612.4-25977.4,5612.3-25977.5,5612.3L-25977.5,5612.3z"/>
	<path class="st0" d="M-25958.4,5612.3c-0.1,0-0.2,0.1-0.2,0.2c-0.1,1-1.3,2.4-2.5,3.9c-1.2,1.5-2.4,3.1-2.3,4.8
		c0,2.7,2.2,4.9,5,4.9c2.8,0,5-2.2,5-4.9c0.1-1.7-1.1-3.3-2.3-4.8c-1.2-1.5-2.4-2.8-2.5-3.9
		C-25958.2,5612.4-25958.3,5612.3-25958.4,5612.3L-25958.4,5612.3z"/>
	<path class="st0" d="M-25939.3,5612.3c-0.1,0-0.2,0.1-0.2,0.2c-0.1,1-1.3,2.4-2.5,3.9c-1.2,1.5-2.4,3.1-2.3,4.8
		c0,2.7,2.2,4.9,5,4.9s5-2.2,5-4.9c0.1-1.7-1.1-3.3-2.3-4.8c-1.2-1.5-2.4-2.8-2.5-3.9
		C-25939.1,5612.4-25939.2,5612.3-25939.3,5612.3L-25939.3,5612.3z"/>
	<path class="st0" d="M-25920.2,5612.3c-0.1,0-0.2,0.1-0.2,0.2c-0.1,1-1.3,2.4-2.5,3.9c-1.2,1.5-2.4,3.1-2.3,4.8
		c0,2.7,2.2,4.9,5,4.9c2.8,0,5-2.2,5-4.9c0.1-1.7-1.1-3.3-2.3-4.8c-1.2-1.5-2.4-2.8-2.5-3.9
		C-25920,5612.4-25920.1,5612.3-25920.2,5612.3L-25920.2,5612.3z"/>
	<path class="st0" d="M-25901,5612.3c-0.1,0-0.2,0.1-0.2,0.2c-0.1,1-1.3,2.4-2.5,3.9c-1.2,1.5-2.4,3.1-2.3,4.8c0,2.7,2.2,4.9,5,4.9
		s5-2.2,5-4.9c0.1-1.7-1.1-3.3-2.3-4.8c-1.2-1.5-2.4-2.8-2.5-3.9C-25900.8,5612.4-25900.9,5612.3-25901,5612.3L-25901,5612.3z"/>
	<path class="st0" d="M-25881.9,5612.3c-0.1,0-0.2,0.1-0.2,0.2c-0.1,1-1.3,2.4-2.5,3.9c-1.2,1.5-2.4,3.1-2.3,4.8
		c0,2.7,2.2,4.9,5,4.9c2.8,0,5-2.2,5-4.9c0.1-1.7-1.1-3.3-2.3-4.8c-1.2-1.5-2.4-2.8-2.5-3.9
		C-25881.7,5612.4-25881.8,5612.3-25881.9,5612.3L-25881.9,5612.3z"/>
	<path class="st0" d="M-25862.8,5612.3c-0.1,0-0.2,0.1-0.2,0.2c-0.1,1-1.3,2.4-2.5,3.9c-1.2,1.5-2.4,3.1-2.3,4.8
		c0,2.7,2.2,4.9,5,4.9s5-2.2,5-4.9c0.1-1.7-1.1-3.3-2.3-4.8c-1.2-1.5-2.4-2.8-2.5-3.9
		C-25862.6,5612.4-25862.7,5612.3-25862.8,5612.3L-25862.8,5612.3z"/>
</g>
<g transform="matrix(0.19243811,0,0,0.19243811,5006.9227,-1062.1025)">
	<path class="st0" d="M-26003.8,5590.1c-0.1,0-0.2,0.1-0.2,0.2c-0.1,1-1.3,2.4-2.5,3.9c-1.2,1.5-2.4,3.1-2.3,4.8
		c0,2.7,2.2,4.9,5,4.9c2.8,0,5-2.2,5-4.9c0.1-1.7-1.1-3.3-2.3-4.8c-1.2-1.5-2.4-2.8-2.5-3.9
		C-26003.6,5590.2-26003.7,5590.1-26003.8,5590.1L-26003.8,5590.1z"/>
	<path class="st0" d="M-25984.7,5590.1c-0.1,0-0.2,0.1-0.2,0.2c-0.1,1-1.3,2.4-2.5,3.9c-1.2,1.5-2.4,3.1-2.3,4.8
		c0,2.7,2.2,4.9,5,4.9s5-2.2,5-4.9c0.1-1.7-1.1-3.3-2.3-4.8c-1.2-1.5-2.4-2.8-2.5-3.9
		C-25984.5,5590.2-25984.6,5590.1-25984.7,5590.1L-25984.7,5590.1z"/>
	<path class="st0" d="M-25965.6,5590.1c-0.1,0-0.2,0.1-0.2,0.2c-0.1,1-1.3,2.4-2.5,3.9c-1.2,1.5-2.4,3.1-2.3,4.8
		c0,2.7,2.2,4.9,5,4.9c2.8,0,5-2.2,5-4.9c0.1-1.7-1.1-3.3-2.3-4.8c-1.2-1.5-2.4-2.8-2.5-3.9
		C-25965.4,5590.2-25965.5,5590.1-25965.6,5590.1L-25965.6,5590.1z"/>
	<path class="st0" d="M-25946.4,5590.1c-0.1,0-0.2,0.1-0.2,0.2c-0.1,1-1.3,2.4-2.5,3.9c-1.2,1.5-2.4,3.1-2.3,4.8
		c0,2.7,2.2,4.9,5,4.9s5-2.2,5-4.9c0.1-1.7-1.1-3.3-2.3-4.8c-1.2-1.5-2.4-2.8-2.5-3.9
		C-25946.3,5590.2-25946.3,5590.1-25946.4,5590.1L-25946.4,5590.1z"/>
	<path class="st0" d="M-25927.3,5590.1c-0.1,0-0.2,0.1-0.2,0.2c-0.1,1-1.3,2.4-2.5,3.9c-1.2,1.5-2.4,3.1-2.3,4.8
		c0,2.7,2.2,4.9,5,4.9c2.8,0,5-2.2,5-4.9c0.1-1.7-1.1-3.3-2.3-4.8c-1.2-1.5-2.4-2.8-2.5-3.9
		C-25927.1,5590.2-25927.2,5590.1-25927.3,5590.1L-25927.3,5590.1z"/>
	<path class="st0" d="M-25908.2,5590.1c-0.1,0-0.2,0.1-0.2,0.2c-0.1,1-1.3,2.4-2.5,3.9c-1.2,1.5-2.4,3.1-2.3,4.8
		c0,2.7,2.2,4.9,5,4.9s5-2.2,5-4.9c0.1-1.7-1.1-3.3-2.3-4.8c-1.2-1.5-2.4-2.8-2.5-3.9C-25908,5590.2-25908.1,5590.1-25908.2,5590.1
		L-25908.2,5590.1z"/>
</g>
<g transform="matrix(0.19243811,0,0,0.19243811,5013.823,-1062.1025)">
	<path class="st0" d="M-26030.1,5567.9c-0.1,0-0.2,0.1-0.2,0.2c-0.1,1-1.3,2.4-2.5,3.9c-1.2,1.5-2.4,3.1-2.3,4.8
		c0,2.7,2.2,4.9,5,4.9c2.8,0,5-2.2,5-4.9c0.1-1.7-1.1-3.3-2.3-4.8c-1.2-1.5-2.4-2.8-2.5-3.9
		C-26029.9,5568-26030,5567.9-26030.1,5567.9L-26030.1,5567.9z"/>
	<path class="st0" d="M-26011,5567.9c-0.1,0-0.2,0.1-0.2,0.2c-0.1,1-1.3,2.4-2.5,3.9c-1.2,1.5-2.4,3.1-2.3,4.8c0,2.7,2.2,4.9,5,4.9
		s5-2.2,5-4.9c0.1-1.7-1.1-3.3-2.3-4.8c-1.2-1.5-2.4-2.8-2.5-3.9C-26010.8,5568-26010.9,5567.9-26011,5567.9L-26011,5567.9z"/>
	<path class="st0" d="M-25991.9,5567.9c-0.1,0-0.2,0.1-0.2,0.2c-0.1,1-1.3,2.4-2.5,3.9c-1.2,1.5-2.4,3.1-2.3,4.8
		c0,2.7,2.2,4.9,5,4.9c2.8,0,5-2.2,5-4.9c0.1-1.7-1.1-3.3-2.3-4.8c-1.2-1.5-2.4-2.8-2.5-3.9
		C-25991.7,5568-25991.8,5567.9-25991.9,5567.9L-25991.9,5567.9z"/>
	<path class="st0" d="M-25972.7,5567.9c-0.1,0-0.2,0.1-0.2,0.2c-0.1,1-1.3,2.4-2.5,3.9c-1.2,1.5-2.4,3.1-2.3,4.8
		c0,2.7,2.2,4.9,5,4.9c2.8,0,5-2.2,5-4.9c0.1-1.7-1.1-3.3-2.3-4.8c-1.2-1.5-2.4-2.8-2.5-3.9
		C-25972.5,5568-25972.6,5567.9-25972.7,5567.9L-25972.7,5567.9z"/>
	<path class="st0" d="M-25953.6,5567.9c-0.1,0-0.2,0.1-0.2,0.2c-0.1,1-1.3,2.4-2.5,3.9c-1.2,1.5-2.4,3.1-2.3,4.8
		c0,2.7,2.2,4.9,5,4.9s5-2.2,5-4.9c0.1-1.7-1.1-3.3-2.3-4.8c-1.2-1.5-2.4-2.8-2.5-3.9C-25953.4,5568-25953.5,5567.9-25953.6,5567.9
		L-25953.6,5567.9z"/>
</g>
</svg>
