<?xml version="1.0" encoding="utf-8"?>
<!-- Generator: Adobe Illustrator 19.2.1, SVG Export Plug-In . SVG Version: 6.00 Build 0)  -->
<svg version="1.1" id="Слой_1" xmlns="http://www.w3.org/2000/svg" xmlns:xlink="http://www.w3.org/1999/xlink" x="0px" y="0px"
	 viewBox="0 0 24 24" style="enable-background:new 0 0 24 24;" xml:space="preserve">
<style type="text/css">
	.st0{fill:#D2D1D1;}
</style>
<path class="st0" d="M24,11.4c0-0.1,0-0.1-0.1-0.3l-4.5-3.6h-9.1c-0.2,0-0.3,0.1-0.4,0.2l-3,3l-6.6,1.1C0.2,12,0.1,12.1,0,12.3
	l0,2.3C0.2,15,0.3,14.9,0.4,15h1.3c0-3.1,4.6-3.1,4.6,0H18c0-3.1,4.6-3.1,4.6,0h1c0.2,0,0.3-0.2,0.4-0.4L24,11.4z M14.3,11.3H8
	c-0.2-0.1-0.3-0.2-0.2-0.4l2.3-2.2c0.1,0,0.1-0.1,0.2-0.1h4C14.3,8.6,14.3,11.3,14.3,11.3z M20.8,11.3H15V8.6h3.4
	c0.1,0,0.1,0,0.2,0.1l1.9,1.9C20.7,10.9,21,11.2,20.8,11.3z"/>
<path class="st0" d="M3.9,13.1c-1,0-1.9,0.8-1.9,1.9s0.8,1.9,1.9,1.9S5.8,16,5.8,15S5,13.1,3.9,13.1z M3.9,15.8
	c-0.4,0-0.8-0.4-0.8-0.8c0-0.4,0.4-0.8,0.8-0.8c0.4,0,0.8,0.4,0.8,0.8C4.7,15.4,4.4,15.8,3.9,15.8z"/>
<path class="st0" d="M20.3,13.1c-1,0-1.9,0.8-1.9,1.9s0.8,1.9,1.9,1.9s1.9-0.8,1.9-1.9S21.3,13.1,20.3,13.1z M20.3,15.8
	c-0.4,0-0.8-0.4-0.8-0.8c0-0.4,0.4-0.8,0.8-0.8c0.4,0,0.8,0.4,0.8,0.8C21.1,15.4,20.7,15.8,20.3,15.8z"/>
</svg>
