<?xml version="1.0" encoding="utf-8"?>
<!-- Generator: Adobe Illustrator 19.2.1, SVG Export Plug-In . SVG Version: 6.00 Build 0)  -->
<svg version="1.1" id="Слой_1" xmlns="http://www.w3.org/2000/svg" xmlns:xlink="http://www.w3.org/1999/xlink" x="0px" y="0px"
	 viewBox="0 0 24 24" style="enable-background:new 0 0 24 24;" xml:space="preserve">
<style type="text/css">
	.st0{fill:#D3D3D3;}
</style>
<g>
	<ellipse class="st0" cx="6.8" cy="6.5" rx="6.8" ry="3"/>
	<path class="st0" d="M6.8,12.5c-3.1,0-5.8-1-6.5-2.2C0.1,10.5,0,10.7,0,11c0,1.7,3,3,6.8,3s6.8-1.3,6.8-3c0-0.3-0.1-0.5-0.2-0.8
		C12.5,11.5,9.9,12.5,6.8,12.5z"/>
	<path class="st0" d="M6.8,17c-3.1,0-5.8-1-6.5-2.2C0.1,15,0,15.2,0,15.5c0,1.7,3,3,6.8,3s6.8-1.3,6.8-3c0-0.3-0.1-0.5-0.2-0.8
		C12.5,16,9.9,17,6.8,17z"/>
	<path class="st0" d="M17.2,15.5c-0.8,0-2.2-0.1-2.2-0.2v1.5c0,0.1,1.5,0.2,2.2,0.2c3.7,0,6.8-1.3,6.8-3c0-0.3-0.1-0.5-0.2-0.8
		C23,14.5,20.4,15.5,17.2,15.5z"/>
	<path class="st0" d="M6.8,21.5c-3.1,0-5.8-1-6.5-2.2C0.1,19.5,0,19.7,0,20c0,1.7,3,3,6.8,3s6.8-1.3,6.8-3c0-0.3-0.1-0.5-0.2-0.8
		C12.5,20.5,9.9,21.5,6.8,21.5z"/>
	<path class="st0" d="M17.2,20c-0.8,0-2.2-0.1-2.2-0.2v1.5c0,0.1,1.5,0.2,2.2,0.2c3.7,0,6.8-1.3,6.8-3c0-0.3-0.1-0.5-0.2-0.8
		C23,19,20.4,20,17.2,20z"/>
	<path class="st0" d="M17.2,11c-0.8,0-2.2-0.1-2.2-0.2v1.5c0,0.1,1.5,0.2,2.2,0.2c3.7,0,6.8-1.3,6.8-3c0-0.3-0.1-0.5-0.2-0.8
		C23,10,20.4,11,17.2,11z"/>
	<path class="st0" d="M17.2,8C21,8,24,6.7,24,5c0-1.7-3-3-6.8-3c-2.1,0-3.9,0.4-5.1,1.1C13.9,3.9,15,5.1,15,6.5
		c0,0.4-0.1,0.9-0.3,1.3C15.5,7.9,16.3,8,17.2,8z"/>
</g>
</svg>
