<?xml version="1.0" encoding="utf-8"?>
<!-- Generator: Adobe Illustrator 19.2.1, SVG Export Plug-In . SVG Version: 6.00 Build 0)  -->
<svg version="1.1" id="Слой_1" xmlns="http://www.w3.org/2000/svg" xmlns:xlink="http://www.w3.org/1999/xlink" x="0px" y="0px"
	 viewBox="0 0 24 24" style="enable-background:new 0 0 24 24;" xml:space="preserve">
<style type="text/css">
	.st0{fill:#D3D3D3;}
</style>
<path class="st0" d="M22.5,13.2c-0.3-0.5-0.8-0.6-1.3-0.4l-2.9,1.7L13.9,12l4.4-2.5l2.9,1.7c0.2,0.1,0.3,0.1,0.5,0.1
	c0.3,0,0.7-0.2,0.8-0.5c0.3-0.5,0.1-1-0.4-1.3l-2-1.1L22,7.3C22.5,7,22.7,6.5,22.4,6c-0.3-0.5-0.8-0.6-1.3-0.4l-1.9,1.1V4.4
	c0-0.5-0.4-1-1-1c-0.5,0-1,0.4-1,1v3.4L13,10.3v-5l2.9-1.7c0.5-0.3,0.6-0.8,0.4-1.3C16,1.9,15.4,1.7,14.9,2l-2,1.1V1
	c0-0.5-0.4-1-1-1c-0.5,0-1,0.4-1,1v2.1L9.1,2C8.6,1.7,8,1.9,7.8,2.3c-0.3,0.5-0.1,1,0.3,1.3L11,5.3v5L6.7,7.8V4.4c0-0.5-0.4-1-1-1
	c-0.5,0-1,0.4-1,1v2.3L2.9,5.7C2.5,5.4,1.9,5.5,1.6,6C1.3,6.5,1.5,7,2,7.3l1.9,1.1l-2,1.1c-0.5,0.3-0.6,0.8-0.4,1.3
	c0.2,0.3,0.5,0.5,0.8,0.5c0.2,0,0.3,0,0.5-0.1l2.9-1.7l4.4,2.5l-4.4,2.5l-2.9-1.7c-0.5-0.3-1-0.1-1.3,0.4c-0.3,0.5-0.1,1,0.4,1.3
	l2,1.1L2,16.7C1.5,17,1.3,17.5,1.6,18c0.2,0.3,0.5,0.5,0.8,0.5c0.2,0,0.3,0,0.5-0.1l1.9-1.1l0,2.3c0,0.5,0.4,1,1,1c0.5,0,1-0.4,1-1
	v-3.4l4.4-2.5v5l-2.9,1.7c-0.5,0.3-0.6,0.8-0.4,1.3c0.2,0.3,0.5,0.5,0.8,0.5c0.2,0,0.3,0,0.5-0.1l2-1.1V23c0,0.5,0.4,1,1,1
	c0.5,0,1-0.4,1-1v-2.1l2,1.1c0.2,0.1,0.3,0.1,0.5,0.1c0.3,0,0.7-0.2,0.8-0.5c0.3-0.5,0.1-1-0.4-1.3L13,18.7v-5l4.4,2.5v3.4
	c0,0.5,0.4,1,1,1c0.5,0,1-0.4,1-1v-2.3l1.9,1.1c0.2,0.1,0.3,0.1,0.5,0.1c0.3,0,0.7-0.2,0.8-0.5c0.3-0.5,0.1-1-0.4-1.3l-1.9-1.1
	l2-1.1C22.6,14.2,22.8,13.6,22.5,13.2z"/>
</svg>
