<?xml version="1.0" encoding="utf-8"?>
<!-- Generator: Adobe Illustrator 19.2.1, SVG Export Plug-In . SVG Version: 6.00 Build 0)  -->
<svg version="1.1" id="Слой_1" xmlns="http://www.w3.org/2000/svg" xmlns:xlink="http://www.w3.org/1999/xlink" x="0px" y="0px"
	 viewBox="0 0 24 24" style="enable-background:new 0 0 24 24;" xml:space="preserve">
<style type="text/css">
	.st0{fill:#CCCACA;}
</style>
<g>
	<path class="st0" d="M20,0H4.7v7.6L9.1,12l-4.4,4.4V24H20v-7.6L15.6,12L20,7.6V0z M18.9,7.2l-4,4L14.1,12l0.8,0.8l4,4v6.1H5.8v-6.1
		l4-4l0.8-0.8l-0.8-0.8l-4-4V1.1h13.1V7.2z"/>
	<polygon class="st0" points="17.8,6.5 17.8,4.4 6.9,4.4 6.9,6.5 12.4,12 	"/>
	<polygon class="st0" points="6.9,21.8 17.8,21.8 17.8,20.7 12.4,18.5 6.9,20.7 	"/>
</g>
</svg>
