<?xml version="1.0" encoding="utf-8"?>
<!-- Generator: Adobe Illustrator 19.2.1, SVG Export Plug-In . SVG Version: 6.00 Build 0)  -->
<svg version="1.1" id="Слой_1" xmlns="http://www.w3.org/2000/svg" xmlns:xlink="http://www.w3.org/1999/xlink" x="0px" y="0px"
	 viewBox="0 0 24 24" style="enable-background:new 0 0 24 24;" xml:space="preserve">
<style type="text/css">
	.st0{fill:#D1D1D1;}
</style>
<g transform="translate(0,-952.36216)">
	<path class="st0" d="M7.1,960.8H11l-2,2L7.1,960.8z"/>
	<path class="st0" d="M13.4,960.8h3.9l-2,2L13.4,960.8z"/>
	<path class="st0" d="M6,961.2l1.8,1.8H4.1L6,961.2z"/>
	<path class="st0" d="M12.2,961.2L14,963h-3.6L12.2,961.2z"/>
	<path class="st0" d="M18.5,961.2l1.8,1.8h-3.6L18.5,961.2z"/>
	<path class="st0" d="M3.8,964.1h4.8l2.4,12.1L3.8,964.1z"/>
	<path class="st0" d="M9.7,964.1h4.9l-2.5,12.3L9.7,964.1z"/>
	<path class="st0" d="M15.8,964.1h4.8l-7.3,12.1L15.8,964.1z"/>
	<path class="st0" d="M1.1,955.3l3,3l-0.7,0.7l-3-3L1.1,955.3z"/>
	<path class="st0" d="M12.7,952.4v4.2h-0.9v-4.2H12.7z"/>
	<path class="st0" d="M23.3,955.3l-3,3l0.7,0.7l3-3L23.3,955.3z"/>
</g>
</svg>
