<?xml version="1.0" encoding="utf-8"?>
<!-- Generator: Adobe Illustrator 19.2.1, SVG Export Plug-In . SVG Version: 6.00 Build 0)  -->
<svg version="1.1" id="Слой_1" xmlns="http://www.w3.org/2000/svg" xmlns:xlink="http://www.w3.org/1999/xlink" x="0px" y="0px"
	 viewBox="0 0 24 24" style="enable-background:new 0 0 24 24;" xml:space="preserve">
<style type="text/css">
	.st0{fill:#D1D1D1;}
</style>
<path class="st0" d="M14.2,0c-3.9,0-7.1,3.2-7.1,7.1s3.2,7.1,7.1,7.1c4,0,7.1-3.2,7.1-7.1S18.2,0,14.2,0z M14.2,2.7
	c-2.5,0-4.5,2-4.5,4.5c0,0.3-0.2,0.5-0.5,0.5C9,7.7,8.7,7.4,8.7,7.1c0-3,2.5-5.5,5.5-5.5c0.3,0,0.5,0.2,0.5,0.5S14.5,2.7,14.2,2.7z"
	/>
<path class="st0" d="M14.3,16.5c-2.1,0-3.8,1.7-3.8,3.8c0,2.1,1.7,3.8,3.8,3.8c2.1,0,3.8-1.7,3.8-3.8S16.4,16.5,14.3,16.5z
	 M14.3,19.1c-0.6,0-1.1,0.5-1.1,1.1c0,0.3-0.2,0.5-0.5,0.5c-0.3,0-0.5-0.2-0.5-0.5c0-1.2,0.9-2.1,2.1-2.1c0.3,0,0.5,0.2,0.5,0.5
	C14.8,18.9,14.6,19.1,14.3,19.1z"/>
<path class="st0" d="M4.6,12.7c-1.6,0-2.8,1.3-2.8,2.8s1.3,2.8,2.8,2.8s2.8-1.2,2.8-2.8C7.4,14,6.2,12.7,4.6,12.7z M4.8,15.1
	c-0.3,0-0.6,0.3-0.6,0.6c0,0.3-0.2,0.5-0.5,0.5c-0.3,0-0.5-0.2-0.5-0.5c0-0.9,0.7-1.6,1.6-1.6c0.3,0,0.5,0.2,0.5,0.5
	C5.3,14.9,5.1,15.1,4.8,15.1z"/>
</svg>
